<svg xmlns="http://www.w3.org/2000/svg" viewBox="0 0 49.78 40.46"><title>aspas</title><g id="Layer_2" data-name="Layer 2"><g id="Camada_1" data-name="Camada 1"><path d="M12.2,19.91A9.17,9.17,0,0,0,6.26,22a10.75,10.75,0,0,1-.48-3.37A14.54,14.54,0,0,1,9.39,9.47,21.74,21.74,0,0,1,18,2.89L16.54,0Q8.19,3.85,4.09,10.28A26.3,26.3,0,0,0,0,24.73,19.49,19.49,0,0,0,2.73,35.32a10.46,10.46,0,0,0,9.47,5.14,9.94,9.94,0,0,0,7.31-3,9.92,9.92,0,0,0,3-7.3,9.79,9.79,0,0,0-3-7.47A10.25,10.25,0,0,0,12.2,19.91Z"/><path d="M46.81,22.72a10.27,10.27,0,0,0-7.31-2.81A9.15,9.15,0,0,0,33.56,22a10.75,10.75,0,0,1-.48-3.37,14.54,14.54,0,0,1,3.61-9.16,21.74,21.74,0,0,1,8.59-6.58L43.83,0Q35.49,3.85,31.39,10.28A26.3,26.3,0,0,0,27.3,24.73,19.4,19.4,0,0,0,30,35.32a10.45,10.45,0,0,0,9.47,5.14A10.14,10.14,0,0,0,49.78,30.19,9.79,9.79,0,0,0,46.81,22.72Z"/></g></g></svg>