<svg xmlns="http://www.w3.org/2000/svg" viewBox="0 0 1043.73 1249.85">
    <title>Balão</title>
    <g>
        <g>
            <g class="fundoBalao">
                <path d="M558.46,798.94c-2.39,6.53-5.29,13.91-7.81,21.42-12.23,36.43-24.07,73-36.64,109.31-6.25,18.05-14,35.58-20.65,53.51-7.62,20.59-14.42,41.5-22.19,62-8.07,21.32-16.81,42.38-25.37,63.51-12.87,31.77-25.9,63.48-38.71,95.27-4.85,12-9.24,24.26-13.89,36.37-3,7.93-11.29,11.44-19.27,8.39a32.3,32.3,0,0,0-6.65-1.86c-7.48-1.12-12.31-6.46-13.31-14-2.42-18.44.35-36.45,3.5-54.54,4.42-25.39,8.48-50.85,12.39-76.33,2.57-16.76,4.72-33.6,6.87-50.42,3.47-27.21,6.94-54.43,10.11-81.68,1.89-16.2,3-32.49,4.86-48.69,1.51-12.87,3.69-25.66,5.64-38.48,2.43-15.93,5-31.84,7.4-47.79C407.24,818,409.44,801,412,784.14c.52-3.35-.26-4.33-3.43-5.64-14.4-6-28.8-12-42.79-18.87a298.25,298.25,0,0,1-29.7-17.27c-9.07-5.84-17.83-12.21-26.35-18.83S293.28,710.12,285.42,703c-8.23-7.48-16.17-15.3-23.94-23.27-7.31-7.49-14.54-15.08-21.23-23.11-7.85-9.42-15.86-18.86-22.41-29.18-12.63-19.91-24.78-40.16-36.19-60.79-8.82-16-17.21-32.32-23.92-49.25-5.47-13.8-8.28-28.66-12-43.12-2.34-9-4.78-18-6.2-27.18A352.31,352.31,0,0,1,135.63,411a245.29,245.29,0,0,1,.57-32.9c1.1-13,2.38-26.16,5.29-38.86,4.21-18.43,9.53-36.64,15.17-54.7,4.1-13.14,8.47-26.38,14.6-38.64,5.06-10.12,12.44-19.21,19.6-28.11,8.94-11.13,18.33-22,28.22-32.26a444.17,444.17,0,0,1,33.45-31.95c14-11.77,28.58-22.83,43.5-33.37,12.18-8.61,25-16.37,37.94-23.82a256.73,256.73,0,0,1,27.76-13.49c9.16-3.9,18.66-7,28-10.37,13.44-4.83,26.78-10,40.41-14.27,14.26-4.43,28.64-8.78,43.28-11.59,18.24-3.5,36.72-6,55.21-7.76,13.37-1.28,26.92-.87,40.39-.83,14.14,0,28.3.16,42.41,1,13.76.8,27.55,2,41.18,4,24.16,3.62,48.26,7.74,72.28,12.17,23.19,4.27,46.46,8.61,67.78,19.44,19.09,9.69,38,19.82,57,29.51,20.45,10.38,38.83,23.77,56,38.74,12.61,11,25,22.38,36.2,34.79,8,8.92,13.82,19.85,20.68,29.83,5.55,8.07,11.46,15.92,16.79,24.13,7.12,11,14.37,21.94,20.59,33.43,5.51,10.19,10,21,14.39,31.73,4.47,10.9,8.76,21.92,12.27,33.16,3.8,12.18,7,24.6,9.7,37.07a292.23,292.23,0,0,1,5,31.5c1.29,12.19,2.44,24.49,2.3,36.72-.18,15.44-1.52,30.88-2.76,46.29-.87,10.92-2,21.85-3.74,32.67-1.75,11.14-4,22.23-6.64,33.19-2.42,10-5.32,19.89-8.71,29.59-3.61,10.34-7.77,20.5-12.18,30.53-3.81,8.65-8,17.19-12.6,25.43-5.13,9.11-10.7,18-16.57,26.64q-11.33,16.71-23.46,32.87c-13.72,18.3-28.65,35.55-48.32,47.72-17.37,10.74-34.78,21.6-53,30.68-11,5.46-23.51,8.06-35.55,11.14-14,3.58-28.2,6.41-42.36,9.33-18.24,3.76-36.54,7.21-54.78,11a114.76,114.76,0,0,0-16.85,4.53c-14.75,5.49-30.08,4.7-45.36,4.92-22.09.32-43.76-3.29-65.46-6.64C583.26,803.3,571.23,801.11,558.46,798.94Z" />
                <path d="M27,310.21c.45-23,1.66-45.83,6.51-68.41,3.38-15.73,7.82-31.16,16.32-44.75a284.35,284.35,0,0,1,25.81-34.73c7.55-8.75,16.51-16.4,25.41-23.85,6.32-5.29,13.88-8.34,22.6-7.58,10.6.92,15.88,11.05,10,19.92a53.69,53.69,0,0,1-7.12,8.3c-14.63,14.4-28.16,29.7-39.16,47.11-10.31,16.31-17,34.11-18.85,53.19-2.61,27.14-4.26,54.39-5.64,81.63-.78,15.43-.18,30.92-.22,46.39,0,4.41-1.94,7.69-6,9.57s-7.77,1-11.1-1.88A37.9,37.9,0,0,1,32,370.27c-2.15-18.8-3.39-37.7-5-56.56C26.95,312.55,27,311.38,27,310.21Z" />
            </g>
            <g class="fundoBranco">
                <path d="M531.46,760.94c-2.39,6.53-5.29,13.91-7.81,21.42-12.23,36.43-24.07,73-36.64,109.31-6.25,18.05-14,35.58-20.65,53.51-7.62,20.59-14.42,41.5-22.19,62-8.07,21.32-16.81,42.38-25.37,63.51-12.87,31.77-25.9,63.48-38.71,95.27-4.85,12-9.24,24.26-13.89,36.37-3,7.93-11.29,11.44-19.27,8.39a32.3,32.3,0,0,0-6.65-1.86c-7.48-1.12-12.31-6.46-13.31-14-2.42-18.44.35-36.45,3.5-54.54,4.42-25.39,8.48-50.85,12.39-76.33,2.57-16.76,4.72-33.6,6.87-50.42,3.47-27.21,6.94-54.43,10.11-81.68,1.89-16.2,3-32.49,4.86-48.69,1.51-12.87,3.69-25.66,5.64-38.48,2.43-15.93,5-31.84,7.4-47.79C380.24,780,382.44,763,385,746.14c.52-3.35-.26-4.33-3.43-5.64-14.4-6-28.8-12-42.79-18.87a298.25,298.25,0,0,1-29.7-17.27c-9.07-5.84-17.83-12.21-26.35-18.83S266.28,672.12,258.42,665c-8.23-7.48-16.17-15.3-23.94-23.27-7.31-7.49-14.54-15.08-21.23-23.11-7.85-9.42-15.86-18.86-22.41-29.18-12.63-19.91-24.78-40.16-36.19-60.79-8.82-16-17.21-32.32-23.92-49.25-5.47-13.8-8.28-28.66-12-43.12-2.34-9-4.78-18-6.2-27.18A352.31,352.31,0,0,1,108.63,373a245.29,245.29,0,0,1,.57-32.9c1.1-13,2.38-26.16,5.29-38.86,4.21-18.43,9.53-36.64,15.17-54.7,4.1-13.14,8.47-26.38,14.6-38.64,5.06-10.12,12.44-19.21,19.6-28.11,8.94-11.13,18.33-22,28.22-32.26a444.17,444.17,0,0,1,33.45-31.95c14-11.77,28.58-22.83,43.5-33.37C281.21,73.62,294,65.86,307,58.4a256.73,256.73,0,0,1,27.76-13.49c9.16-3.9,18.66-7,28-10.37,13.44-4.83,26.78-10,40.41-14.27,14.26-4.43,28.64-8.78,43.28-11.59,18.24-3.5,36.72-6,55.21-7.76C515-.35,528.6.05,542.07.1c14.14,0,28.3.16,42.41,1,13.76.8,27.55,2,41.18,4,24.16,3.62,48.26,7.74,72.28,12.17,23.19,4.27,46.46,8.61,67.78,19.44,19.09,9.69,38,19.82,57,29.51,20.45,10.38,38.83,23.77,56,38.74,12.61,11,25,22.38,36.2,34.79,8,8.92,13.82,19.85,20.68,29.83,5.55,8.07,11.46,15.92,16.79,24.13,7.12,11,14.37,21.94,20.59,33.43,5.51,10.19,10,21,14.39,31.73,4.47,10.9,8.76,21.92,12.27,33.16,3.8,12.18,7,24.6,9.7,37.07a292.23,292.23,0,0,1,5,31.5c1.29,12.19,2.44,24.49,2.3,36.72-.18,15.44-1.52,30.88-2.76,46.29-.87,10.92-2,21.85-3.74,32.67-1.75,11.14-4,22.23-6.64,33.19-2.42,10-5.32,19.89-8.71,29.59-3.61,10.34-7.77,20.5-12.18,30.53-3.81,8.65-8,17.19-12.6,25.43-5.13,9.11-10.7,18-16.57,26.64q-11.33,16.71-23.46,32.87c-13.72,18.3-28.65,35.55-48.32,47.72-17.37,10.74-34.78,21.6-53,30.68-11,5.46-23.51,8.06-35.55,11.14-14,3.58-28.2,6.41-42.36,9.33-18.24,3.76-36.54,7.21-54.78,11a114.76,114.76,0,0,0-16.85,4.53c-14.75,5.49-30.08,4.7-45.36,4.92-22.09.32-43.76-3.29-65.46-6.64C556.26,765.3,544.23,763.11,531.46,760.94Z" />
                <path d="M0,272.21c.45-23,1.66-45.83,6.51-68.41,3.38-15.73,7.82-31.16,16.32-44.75a284.35,284.35,0,0,1,25.81-34.73c7.55-8.75,16.51-16.4,25.41-23.85,6.32-5.29,13.88-8.34,22.6-7.58,10.6.92,15.88,11.05,10,19.92a53.69,53.69,0,0,1-7.12,8.3c-14.63,14.4-28.16,29.7-39.16,47.11-10.31,16.31-17,34.11-18.85,53.19-2.61,27.14-4.26,54.39-5.64,81.63-.78,15.43-.18,30.92-.22,46.39,0,4.41-1.94,7.69-6,9.57s-7.77,1-11.1-1.88A37.9,37.9,0,0,1,5,332.27c-2.15-18.8-3.39-37.7-5-56.56C-.05,274.55,0,273.38,0,272.21Z" />
            </g>
        </g>
    </g>
</svg>