<svg id="Layer_1" data-name="Layer 1" xmlns="http://www.w3.org/2000/svg" viewBox="0 0 91.92 80"><defs><style>.cls-1{fill:#fff;}</style></defs><title>foto</title><path class="cls-1" d="M64.2,55.9V8.3A8.28,8.28,0,0,0,55.9,0H8.3A8.28,8.28,0,0,0,0,8.3V55.9a8.28,8.28,0,0,0,8.3,8.3H55.9A8.28,8.28,0,0,0,64.2,55.9ZM17,57.3a22.27,22.27,0,0,1,.3-2.3l.1-.1c1.3-1.9,4.9-2.4,7.6-2.5,3.8,0,5.6-1.5,5.6-4.5V44h0V41.8l-2.5-1.1a25.66,25.66,0,0,1-3.9-3.4l-.1-.4a67.08,67.08,0,0,1-1.4-9.4c0-6.2,2.8-8.9,9.5-8.9s9.5,2.7,9.5,8.9a74.1,74.1,0,0,1-1.4,9.4l-.1.3c-.5.5-2.9,2.7-3.9,3.5l-2.5,1V44h0v3.9q0,4.5,5.7,4.5c5.6.2,7.1,1.8,7.5,2.5a24.27,24.27,0,0,1,.3,2.5c.1.9.2,1.5.2,2H16.7A16.92,16.92,0,0,0,17,57.3ZM38.3,45.2V45a25.31,25.31,0,0,0,2.6-2.2c.1-.1,3.5-2.4,3.9-4.9a81.06,81.06,0,0,0,1.5-10.4c0-5.1-1.8-13.6-14.2-13.6-11.8,0-14.2,7.4-14.2,13.6,0,2.8,1.5,10.1,1.5,10.4.4,2.6,3.7,4.8,3.8,4.9.7.6,1.2,1,1.5,1.3s.6.5.9.8v1.8c0,.8-.4,1.2-1.1,1.2-9.4.4-11.1,4.1-11.3,4.6a11.66,11.66,0,0,0-.9,3.8,30,30,0,0,1-.7,3.3H8.3A3.59,3.59,0,0,1,4.7,56V8.3A3.59,3.59,0,0,1,8.3,4.7H55.9a3.59,3.59,0,0,1,3.6,3.6V55.9a3.59,3.59,0,0,1-3.6,3.6H52.6a16.83,16.83,0,0,1-.7-3.3,15.06,15.06,0,0,0-.9-3.8c-.2-.5-1.9-4.2-11.5-4.6-.7,0-1.1-.4-1.1-1.2V45.2Z" transform="translate(0 0)"/><path class="cls-1" d="M87.2,25,72.9,18.3a2.32,2.32,0,0,0-3.5,2.1c0,1.8,2.2,2.6,2.3,2.6l13.6,6.3A3.51,3.51,0,0,1,87,34L68.6,73.3a3.24,3.24,0,0,1-2,1.8,3.59,3.59,0,0,1-2.7-.1L53,69.9l-.4-.1A2.32,2.32,0,0,0,49.5,72a2.38,2.38,0,0,0,1.6,2.2l10.7,5a8.53,8.53,0,0,0,3.5.8,8.32,8.32,0,0,0,7.5-4.8L91.1,36A8.25,8.25,0,0,0,87.2,25Z" transform="translate(0 0)"/></svg>