<svg xmlns="http://www.w3.org/2000/svg" viewBox="0 0 74.531 41.924">
  <defs>
    <style>
      .cls-1 {
        fill: #231f20;
        fill-rule: evenodd;
      }
    </style>
  </defs>
  <path id="Clube_O2" data-name="Clube O2" class="cls-1" d="M128.087,41.4c-.451-.15-1.2-.15-1.5-.451-.3-.15-.3-.451-.15-.751a3.984,3.984,0,0,1,.751-.9c.3-.3.451-.6.751-.9,1.5-1.653,3.156-3.306,4.658-5.109a10.361,10.361,0,0,0,2.254-4.207,10.06,10.06,0,0,0,0-3.005,7.425,7.425,0,0,0-4.207-5.56,11.186,11.186,0,0,0-5.56-.6c-3.757.6-6.011,2.855-6.311,6.762a21.5,21.5,0,0,0-6.762-10.218A20.348,20.348,0,0,0,99.687,11.8H98.335a19.347,19.347,0,0,0-11.12,3.907,21.461,21.461,0,0,0-2.7,2.254A21.165,21.165,0,0,0,78.5,31.935h0v1.5a21.478,21.478,0,0,0,1.953,8.114,23.5,23.5,0,0,0,4.057,6.011,9.841,9.841,0,0,0,2.7,2.254,20.477,20.477,0,0,0,11.12,3.907h1.352a20.235,20.235,0,0,0,15.177-7.513,22.971,22.971,0,0,0,3.907-7.363,22.521,22.521,0,0,0,.451-10.068c.3.15.751,0,1.2,0h2.4a2.929,2.929,0,0,0,1.2-.15c.6-.3.451-1.052.751-1.653a1.912,1.912,0,0,1,1.352-1.052,3.3,3.3,0,0,1,2.1.3,1.939,1.939,0,0,1,.751,1.653,3.222,3.222,0,0,1-.6,1.8c-.3.451-.751.9-1.052,1.352-2.254,2.554-4.959,4.808-7.062,7.513a10.809,10.809,0,0,0-1.8,3.156,4.824,4.824,0,0,0,.15,2.1,3.087,3.087,0,0,0,2.7,2.1,12.146,12.146,0,0,0,2.4.15h29.3C144.616,44.407,136.352,42.754,128.087,41.4ZM115.465,40.05a19.669,19.669,0,0,1-3.606,5.56,19.987,19.987,0,0,1-5.259,3.907,16.309,16.309,0,0,1-7.513,1.8,17.447,17.447,0,0,1-7.663-1.653,15.624,15.624,0,0,1-5.41-3.907A19.333,19.333,0,0,1,81.2,36.744a17.18,17.18,0,0,1-.451-4.207,17.017,17.017,0,0,1,1.5-7.663,16.184,16.184,0,0,1,3.606-5.56A16.905,16.905,0,0,1,94.578,14.2a7.613,7.613,0,0,1,1.953-.3,9.92,9.92,0,0,1,2.1-.15,20.029,20.029,0,0,1,4.207.451,17.791,17.791,0,0,1,8.715,4.959,17.3,17.3,0,0,1,2.1,2.554,19.522,19.522,0,0,1,3.306,10.518A19.546,19.546,0,0,1,115.465,40.05Z" transform="translate(-78.5 -11.8)"/>
</svg>
