<?xml version="1.0" encoding="utf-8"?>
<!-- Generator: Adobe Illustrator 22.1.0, SVG Export Plug-In . SVG Version: 6.00 Build 0)  -->
<svg version="1.1" id="Layer_1" xmlns="http://www.w3.org/2000/svg" xmlns:xlink="http://www.w3.org/1999/xlink" x="0px" y="0px"
	 viewBox="0 0 225 50" enable-background="new 0 0 225 50" xml:space="preserve">
<title>Ativo 1</title>
<g>
	<g>
		<linearGradient id="SVGID_1_" gradientUnits="userSpaceOnUse" x1="0.3863" y1="24.35" x2="224.3707" y2="24.35">
			<stop  offset="0" style="stop-color:#A8C0FF"/>
			<stop  offset="1" style="stop-color:#3F2B96"/>
		</linearGradient>
		<path fill="url(#SVGID_1_)" d="M25.5,3.5H9.8C8,3.5,7.4,4,7,5.9l-6.5,37c-0.3,1.8,0.2,2.4,2,2.4h4.8c1.8,0,2.5-0.6,2.8-2.4l2-11.2
			h8.7c8.8,0,15.1-4.5,16.7-13.3C38.9,9.5,34.4,3.5,25.5,3.5z M27.6,17.6c-0.6,3.4-3,5.3-6.4,5.3h-7.7l1.9-10.7h7.7
			C26.5,12.2,28.2,14.2,27.6,17.6z"/>
		<linearGradient id="SVGID_2_" gradientUnits="userSpaceOnUse" x1="0.3863" y1="24.35" x2="224.3707" y2="24.35">
			<stop  offset="0" style="stop-color:#A8C0FF"/>
			<stop  offset="1" style="stop-color:#3F2B96"/>
		</linearGradient>
		<path fill="url(#SVGID_2_)" d="M63.8,3.5H47.5c-1.8,0-2.5,0.6-2.8,2.4l-6.5,37c-0.3,1.8,0.2,2.4,2,2.4h4.8c1.8,0,2.5-0.6,2.8-2.4
			l2.2-12.4h2.8c3.5,0,4,0.8,4.8,3.5l2.7,9.1c0.6,1.8,1.5,2.3,4.5,2.3h4.7c1.8,0,2.2-1.1,1.8-2.5l-4.1-11.6
			c-0.2-0.7-0.5-1.4-0.9-2.1c4.7-2,7.9-5.7,8.9-11.5C76.8,8.9,72.3,3.5,63.8,3.5z M65.3,17c-0.5,3.1-2.6,4.8-5.7,4.8h-8.2l1.6-9.7
			h8.2C64.4,12.2,65.9,13.9,65.3,17z"/>
		<linearGradient id="SVGID_3_" gradientUnits="userSpaceOnUse" x1="0.3863" y1="24.35" x2="224.3707" y2="24.35">
			<stop  offset="0" style="stop-color:#A8C0FF"/>
			<stop  offset="1" style="stop-color:#3F2B96"/>
		</linearGradient>
		<path fill="url(#SVGID_3_)" d="M99.9,2.6C88.7,2.6,81.7,8.1,80,17.9l-2.1,11.9c-1.6,9.8,3.6,16.3,14.7,16.3
			c11.2,0,18.1-5.4,19.8-15.1l2.1-11.9C116.2,9.3,111.1,2.6,99.9,2.6z M105.2,18.2L103,30.5c-0.8,4.6-4.1,6.9-9.1,6.9
			c-4.9,0-7.4-2.3-6.6-6.9l2.2-12.2c0.8-4.6,4.1-6.9,9-6.9C103.6,11.3,106,13.6,105.2,18.2z"/>
		<linearGradient id="SVGID_4_" gradientUnits="userSpaceOnUse" x1="0.3863" y1="24.35" x2="224.3707" y2="24.35">
			<stop  offset="0" style="stop-color:#A8C0FF"/>
			<stop  offset="1" style="stop-color:#3F2B96"/>
		</linearGradient>
		<path fill="url(#SVGID_4_)" d="M154.8,3.5h-4.5c-2.9,0-3.6,0.5-4.5,2.2l-10.8,22c-1.6,3.2-2.7,7-2.7,7h-0.4c0,0,0.1-3.9-0.3-7.1
			l-3-22c-0.2-1.7-1-2.2-3.8-2.2h-4.4c-1.7,0-2.3,0.8-2,2.4l6.9,37.5c0.2,1.5,0.9,1.9,2.6,1.9h4.8c1.6,0,2.4-0.4,3.3-2l20-37.4
			C156.8,4.2,156.6,3.5,154.8,3.5z"/>
		<linearGradient id="SVGID_5_" gradientUnits="userSpaceOnUse" x1="0.3863" y1="24.35" x2="224.3707" y2="24.35">
			<stop  offset="0" style="stop-color:#A8C0FF"/>
			<stop  offset="1" style="stop-color:#3F2B96"/>
		</linearGradient>
		<path fill="url(#SVGID_5_)" d="M177.7,5.3c-0.3-1.5-1-1.9-2.6-1.9h-4.5c-1.6,0-2.4,0.4-3.2,2l-20.7,37.4c-0.9,1.6-0.6,2.4,1.2,2.4
			h4.4c2.9,0,3.8-0.5,4.6-2.2l2.8-5.5h14.6l0.8,5.5c0.2,1.7,1,2.2,4,2.2h4.1c1.7,0,2.3-0.8,2-2.4L177.7,5.3z M163.5,29.8l4.7-9.2
			c2.1-4.2,2.9-8.4,2.9-8.4h0.5c0,0-0.6,4.2,0,8.4l1.5,9.1H163.5z"/>
		<linearGradient id="SVGID_6_" gradientUnits="userSpaceOnUse" x1="0.3863" y1="24.35" x2="224.3707" y2="24.35">
			<stop  offset="0" style="stop-color:#A8C0FF"/>
			<stop  offset="1" style="stop-color:#3F2B96"/>
		</linearGradient>
		<path fill="url(#SVGID_6_)" d="M224.2,11.6c-1.7-5.3-5.4-9-14-9c-11,0-17.2,4.5-18.6,12.1c-1.9,10.8,6.8,13.1,13.7,13.9
			c4.3,0.5,7.7,1.3,7.2,4.2c-0.6,3.4-3.6,4.6-8.6,4.6c-3.8,0-6.2-1.5-6.9-4.1c-0.5-1.8-1.1-2.1-2.8-1.4l-4.6,1.5
			c-1.8,0.6-2.4,1.4-2.1,3.1c1.2,6,6.2,9.5,15.4,9.5c11.3,0,17.7-4.2,19.2-12.3c1.8-10.2-6.1-13.3-12.8-14.1
			c-4.8-0.5-8.7-1.2-8.1-4.4c0.5-2.8,2.8-4.1,7.7-4.1c3.6,0,5.4,1.4,6.2,3.9c0.6,1.6,1.2,1.9,2.8,1.2l4.5-1.8
			C224.2,13.8,224.7,13.2,224.2,11.6z"/>
	</g>
</g>
</svg>
