<svg xmlns="http://www.w3.org/2000/svg" viewBox="0 0 199.6 38.77"><title>provas-preto-ok</title><g id="Layer_2" data-name="Layer 2"><g id="Camada_1" data-name="Camada 1"><path d="M22.35.8h-14c-1.6,0-2.14.45-2.49,2.14l-5.8,33c-.26,1.6.18,2.13,1.78,2.13H6.13c1.61,0,2.23-.53,2.5-2.13l1.78-10h7.75c7.85,0,13.46-4,14.89-11.85C34.29,6.15,30.28.8,22.35.8Zm1.87,12.57a5.38,5.38,0,0,1-5.7,4.72H11.66l1.69-9.53h6.86C23.24,8.56,24.76,10.34,24.22,13.37Z" fill="#231f20"/><path d="M56.49.8H42c-1.61,0-2.23.54-2.5,2.14l-5.79,33c-.27,1.6.18,2.13,1.78,2.13h4.28c1.6,0,2.23-.53,2.5-2.13l2-11.06h2.49c3.12,0,3.57.72,4.28,3.12l2.41,8.11c.53,1.61,1.33,2,4,2h4.18c1.61,0,2-1,1.61-2.22L59.52,25.58a8.21,8.21,0,0,0-.81-1.87,12.83,12.83,0,0,0,7.93-10.25C68.07,5.61,64.06.8,56.49.8Zm1.33,12a4.75,4.75,0,0,1-5.08,4.28H45.43l1.43-8.64h7.31C57,8.56,58.36,10.07,57.82,12.83Z" fill="#231f20"/><path d="M88.66,0c-10,0-16.22,4.9-17.74,13.64l-1.87,10.6C67.62,33,72.26,38.77,82.15,38.77S98.28,34,99.8,25.31l1.87-10.61C103.18,6,98.64,0,88.66,0Zm4.72,13.9-2,11C90.71,29,87.77,31,83.31,31S76.72,29,77.43,24.86l2-10.87c.71-4.1,3.65-6.15,8-6.15C92,7.75,94.09,9.8,93.38,13.9Z" fill="#231f20"/><path d="M137.58.8h-4c-2.58,0-3.2.45-4,2l-9.62,19.61a42.48,42.48,0,0,0-2.41,6.24h-.35a52,52,0,0,0-.27-6.33L114.23,2.67c-.17-1.51-.89-2-3.38-2h-3.92c-1.52,0-2.05.72-1.79,2.14l6.15,33.42c.18,1.34.81,1.69,2.32,1.69h4.28a2.83,2.83,0,0,0,2.94-1.78L138.65,2.85C139.37,1.43,139.19.8,137.58.8Z" fill="#231f20"/><path d="M158,2.41c-.27-1.34-.89-1.7-2.32-1.7h-4a2.68,2.68,0,0,0-2.85,1.79L130.37,35.83c-.81,1.42-.54,2.13,1.06,2.13h3.93c2.58,0,3.38-.44,4.1-2L142,31.1h13l.71,4.9c.18,1.52.9,2,3.57,2h3.65c1.52,0,2.05-.71,1.79-2.13ZM145.34,24.24l4.19-8.2a32.33,32.33,0,0,0,2.58-7.48h.45a29.81,29.81,0,0,0,0,7.48l1.33,8.11h-8.55Z" fill="#231f20"/><path d="M199.43,8C197.92,3.3,194.62,0,187,0c-9.81,0-15.33,4-16.58,10.78-1.69,9.63,6.06,11.68,12.21,12.39,3.83.45,6.86,1.16,6.42,3.74-.54,3-3.21,4.1-7.67,4.1-3.39,0-5.52-1.33-6.15-3.65-.44-1.6-1-1.87-2.49-1.25l-4.1,1.34c-1.61.53-2.14,1.25-1.87,2.76,1.07,5.35,5.52,8.47,13.72,8.47,10.07,0,15.77-3.75,17.11-11,1.61-9.09-5.44-11.86-11.41-12.57-4.27-.45-7.75-1.07-7.21-3.92.44-2.5,2.49-3.65,6.86-3.65,3.21,0,4.81,1.24,5.52,3.47.54,1.43,1.07,1.69,2.5,1.07l4-1.6C199.43,10,199.88,9.45,199.43,8Z" fill="#231f20"/></g></g></svg>