<svg id="Layer_1" data-name="Layer 1" xmlns="http://www.w3.org/2000/svg" viewBox="0 0 60.11 66.4"><defs><style>.cls-1{fill:#fff;}</style></defs><title>resultados</title><path class="cls-1" d="M59.7,11.6,50.6.5A1.61,1.61,0,0,0,49.5,0h-39A1.27,1.27,0,0,0,9.4.5L.3,11.6a1.35,1.35,0,0,0-.1,1.6l15,26a17.35,17.35,0,0,0-2.8,9.5,17.7,17.7,0,0,0,35.4,0A17.1,17.1,0,0,0,45,39.2l15-26A1.53,1.53,0,0,0,59.7,11.6ZM46.9,2.8,41.1,13H19L13.1,2.8ZM30,31h-.6L20.5,15.7H39.4L30.6,31ZM3.1,12.6l7.4-8.9,6.4,11.1a1.61,1.61,0,0,0,.4.7l9.3,16a18.15,18.15,0,0,0-9.5,5.4ZM30,63.6A14.9,14.9,0,1,1,44.9,48.7,14.94,14.94,0,0,1,30,63.6ZM43.1,36.8a17.5,17.5,0,0,0-9.4-5.4l9.2-16.1c.1-.2.2-.3.3-.5L49.6,3.7,57,12.6Z" transform="translate(0.01 0)"/><path class="cls-1" d="M30,36A12.7,12.7,0,1,0,42.7,48.7,12.72,12.72,0,0,0,30,36Zm0,22.6a9.9,9.9,0,1,1,9.9-9.9A9.92,9.92,0,0,1,30,58.6Z" transform="translate(0.01 0)"/></svg>