<svg xmlns="http://www.w3.org/2000/svg" viewBox="0 0 74.93 12">
    <path class="path-riskim" fill="#fff164" d="M23.8,8.54H60.48c4,0,8,0,12,.09,1.15,0,2.55.19,2.46,1.84-.06,1.25-1.26,1.46-2.26,1.55-1.16.1-2.33.1-3.49.1l-54.43-.1c-1,0-2,0-3-.07-1.18-.1-2.45-.29-2.64-1.81s.9-2.2,2.05-2.51c.63-.17,1.27-.32,1.91-.47l2.22-.48,2.43-.5,2.55-.53L22.85,5l1.23-.28.61-.16c.19-.05.12-.23,0-.31A2.1,2.1,0,0,0,24,4c-.35-.06-.7-.1-1.05-.14s-.91-.07-1.36-.09l-1.57-.06-1.66,0-1.65,0H13.89l-.93,0c-2.83-.1-5.66.07-8.49-.07C2.79,3.52,0,4.31,0,1.82S2.86.08,4.55.1c6.84.07,13.37.2,20.2.44,1.92.07,3.84,0,5.77,0a51.54,51.54,0,0,1,5.8.34L37.84,1,40,1.22a5.53,5.53,0,0,1,1.84.3,1.76,1.76,0,0,1,.86,1.79c0,1.88-2,2-3.45,2.29-3.19.57-6.38,1.08-9.57,1.62L28,7.5l-1.92.34c-.53.1-1.07.21-1.59.35a3.69,3.69,0,0,0-.5.17S23.72,8.47,23.8,8.54Z"/>
</svg>