<svg xmlns="http://www.w3.org/2000/svg" xmlns:xlink="http://www.w3.org/1999/xlink" viewBox="0 0 128 90.67">
	<defs>
		<linearGradient id="gradient-rock" x1="64" y1="90.67" x2="64" gradientUnits="userSpaceOnUse">
			<stop offset="0" stop-color="#fffa35" />
			<stop offset="1" stop-color="#ffffd0" />
		</linearGradient>
        <linearGradient id="gradient-hiphop" x1="64" y1="90.67" x2="64" gradientUnits="userSpaceOnUse">
			<stop offset="0" stop-color="#9cec95" />
			<stop offset="1" stop-color="#cbf5c7" />
		</linearGradient>
        <linearGradient id="gradient-pop" x1="64" y1="90.67" x2="64" gradientUnits="userSpaceOnUse">
			<stop offset="0" stop-color="#5adcd4" />
			<stop offset="1" stop-color="#b2dbd9" />
		</linearGradient>
	</defs>
	<g id="youtubeIcon" data-name="Layer 2">
		<g id="Social_Icons" data-name="Social Icons">
			<g id="_4_stroke" data-name="4 stroke">
				<g id="Youtube">
					<path id="Youtube-2" data-name="Youtube" class="cls-2" d="M126.72,19.56s-1.25-8.88-5.09-12.79c-4.87-5.14-10.32-5.16-12.82-5.46C90.9,0,64,0,64,0H64S37.1,0,19.19,1.31c-2.5.3-8,.32-12.83,5.46C2.53,10.67,1.28,19.56,1.28,19.56A196.38,196.38,0,0,0,0,40.42V50.2A196.28,196.28,0,0,0,1.28,71.06s1.25,8.88,5.08,12.79c4.87,5.14,11.27,5,14.12,5.51,10.24,1,43.52,1.3,43.52,1.3s26.9,0,44.81-1.35c2.5-.3,8-.33,12.82-5.46,3.84-3.91,5.09-12.79,5.09-12.79A196.29,196.29,0,0,0,128,50.2V40.42A196.38,196.38,0,0,0,126.72,19.56ZM50.78,62.05V25.83L85.36,44Z" />
				</g>
			</g>
		</g>
	</g>
	<polygon points="85.4,44 50.8,25.8 50.8,62 " fill="#FFF"/>
</svg>